<?xml version="1.0" standalone="no"?>
<!DOCTYPE svg PUBLIC "-//W3C//DTD SVG 20010904//EN"
 "http://www.w3.org/TR/2001/REC-SVG-20010904/DTD/svg10.dtd">
<svg version="1.0" xmlns="http://www.w3.org/2000/svg"
 width="360.000000pt" height="360.000000pt" viewBox="0 0 360.000000 360.000000"
 preserveAspectRatio="xMidYMid meet">

<g transform="translate(0.000000,360.000000) scale(0.100000,-0.100000)"
fill="#000000" stroke="none">
<path d="M1620 3046 c-217 -38 -435 -127 -509 -208 -32 -34 -37 -44 -25 -51
10 -6 38 7 89 38 95 60 215 110 335 142 129 34 363 43 495 19 180 -33 341
-100 488 -203 67 -46 83 -53 108 -48 l31 7 -24 25 c-30 32 -167 123 -243 161
-84 41 -195 80 -295 103 -111 25 -347 33 -450 15z"/>
<path d="M1624 2845 c-168 -30 -283 -79 -451 -191 -101 -67 -119 -84 -185
-172 -179 -241 -259 -483 -244 -742 15 -278 127 -516 333 -710 360 -341 907
-382 1332 -102 148 98 295 275 371 450 68 152 84 234 84 417 0 269 -86 501
-263 703 -157 181 -410 319 -645 351 -100 14 -242 13 -332 -4z m212 -100 c5
-19 13 -25 34 -25 38 0 44 -13 19 -36 -16 -14 -19 -26 -14 -51 7 -37 0 -40
-33 -17 -21 14 -25 14 -47 0 -34 -23 -38 -20 -31 19 6 29 3 36 -19 51 -30 20
-24 34 16 34 22 0 32 6 39 25 5 14 14 25 20 25 5 0 12 -11 16 -25z m-286 -62
c0 -8 12 -13 29 -13 40 0 47 -16 17 -35 -21 -14 -23 -20 -15 -42 13 -36 3 -44
-30 -25 -28 16 -31 15 -50 -2 -27 -25 -44 -13 -28 21 10 23 8 28 -16 47 -31
25 -27 36 15 36 17 0 31 6 33 15 17 53 15 52 31 31 8 -11 14 -26 14 -33z m578
12 c8 -17 20 -25 36 -25 34 0 41 -16 15 -34 -17 -11 -20 -21 -15 -41 10 -38
-1 -46 -33 -27 -28 15 -31 15 -49 -1 -28 -26 -35 -21 -27 19 5 30 3 39 -15 51
-25 17 -18 33 16 33 17 0 27 8 34 25 5 14 13 25 18 25 5 0 14 -11 20 -25z
m262 -152 c0 -8 13 -13 35 -13 41 0 45 -11 10 -34 -21 -14 -23 -20 -14 -43 12
-31 -2 -51 -21 -28 -14 17 -46 20 -55 5 -3 -5 -13 -10 -22 -10 -12 0 -14 7 -9
32 5 24 2 34 -14 45 -28 20 -25 33 9 33 24 0 31 6 41 33 11 31 12 31 26 13 7
-11 14 -26 14 -33z m-1100 12 c7 -19 17 -25 40 -25 35 0 39 -14 9 -31 -17 -9
-20 -17 -15 -44 7 -37 -5 -53 -24 -30 -14 17 -46 20 -55 5 -3 -5 -13 -10 -21
-10 -12 0 -14 7 -9 31 6 25 3 34 -14 45 -30 21 -26 34 9 34 23 0 33 6 40 25 5
14 14 25 20 25 6 0 15 -11 20 -25z m269 -200 l104 -105 -7 -42 c-21 -130 -23
-120 29 -162 l46 -38 30 28 c29 28 29 28 29 150 0 89 4 125 13 133 28 23 37
-9 37 -135 0 -100 3 -124 16 -135 9 -7 19 -22 23 -32 6 -17 13 -14 59 25 49
40 53 45 47 78 -3 19 -8 57 -12 83 l-6 49 104 104 c57 57 107 104 112 104 4 0
10 -7 14 -16 4 -11 -23 -44 -88 -110 l-93 -94 12 -70 c7 -39 12 -77 12 -85 0
-8 -36 -44 -80 -81 -74 -62 -92 -86 -72 -98 7 -4 104 6 367 39 326 41 303 39
325 20 28 -26 25 -46 -15 -93 -103 -119 -341 -152 -577 -78 -43 13 -78 22 -78
21 0 -2 43 -34 96 -72 l96 -68 -7 -77 c-3 -43 -10 -91 -15 -107 -8 -29 -6 -32
101 -110 60 -44 109 -85 109 -91 0 -32 -39 -16 -146 61 l-116 84 6 65 c3 36 8
85 12 110 l6 45 -86 62 c-47 34 -88 58 -91 53 -13 -22 10 -58 56 -90 49 -33
50 -35 45 -75 -3 -22 -8 -79 -12 -127 l-7 -86 107 -138 c100 -128 117 -162 90
-171 -6 -2 -63 64 -127 146 -132 168 -129 160 -106 317 11 71 10 78 -6 91 -30
22 -37 15 -33 -29 6 -54 -8 -152 -28 -189 -20 -39 -58 -39 -77 -1 -21 40 -29
79 -36 160 -6 68 -7 72 -24 60 -17 -13 -18 -22 -7 -136 l11 -122 -117 -150
c-64 -83 -120 -150 -124 -150 -4 0 -12 6 -18 13 -9 10 15 46 99 153 l110 139
-6 65 c-3 36 -8 95 -11 131 l-6 65 50 33 c34 22 51 40 55 59 3 15 3 30 1 34
-6 10 -180 -118 -177 -130 1 -6 7 -51 14 -101 9 -73 9 -94 -1 -106 -28 -33
-223 -166 -236 -161 -30 11 -10 34 91 106 58 40 105 79 105 86 0 20 -21 167
-26 185 -3 12 22 36 88 84 51 37 97 71 102 76 5 4 -26 -3 -68 -16 -241 -74
-472 -45 -579 74 -42 46 -46 70 -17 96 18 16 28 17 112 7 152 -18 500 -61 539
-67 29 -4 38 -1 43 12 7 18 -24 50 -113 116 l-43 32 6 55 c3 30 8 69 12 85 5
28 -2 39 -86 128 -60 63 -90 102 -86 112 3 8 9 15 14 15 4 0 55 -47 111 -105z
m1031 -22 c0 -8 12 -13 29 -13 40 0 47 -16 17 -35 -22 -15 -23 -20 -14 -46 13
-39 7 -43 -30 -22 -29 17 -31 17 -50 0 -28 -25 -35 -21 -28 18 6 29 3 36 -19
51 -30 20 -24 34 16 34 18 0 32 6 34 15 17 53 15 52 31 31 8 -11 14 -26 14
-33z m-1500 12 c7 -17 17 -25 34 -25 34 0 40 -14 16 -35 -16 -14 -19 -26 -14
-52 7 -37 3 -40 -31 -17 -23 15 -27 15 -50 0 -34 -23 -38 -20 -31 17 5 26 2
38 -14 52 -24 21 -18 35 16 35 17 0 27 8 34 25 5 14 14 25 20 25 6 0 15 -11
20 -25z m-119 -265 c9 -24 17 -30 40 -30 34 0 37 -13 8 -34 -17 -11 -20 -20
-14 -45 7 -34 0 -38 -32 -16 -19 13 -23 13 -46 -5 -30 -24 -39 -16 -31 26 5
26 2 34 -15 43 -30 17 -26 31 9 31 20 0 33 6 37 18 7 19 23 42 30 42 2 0 9
-13 14 -30z m1739 -17 c0 -8 12 -13 29 -13 40 0 46 -14 16 -34 -21 -14 -23
-20 -15 -42 14 -37 3 -48 -27 -24 l-25 20 -28 -20 c-33 -24 -45 -13 -28 25 10
22 9 28 -10 41 -30 21 -27 34 7 34 24 0 31 6 41 33 11 31 12 31 26 13 7 -11
14 -26 14 -33z m-1765 -273 c11 -21 23 -30 40 -30 29 0 32 -12 9 -31 -11 -9
-14 -23 -11 -46 6 -37 -5 -42 -37 -18 -17 13 -22 13 -42 0 -33 -21 -37 -19
-30 17 5 24 2 34 -14 45 -28 20 -25 33 9 33 23 0 31 6 40 30 5 17 12 30 15 30
3 0 12 -13 21 -30z m1785 -5 c7 -19 17 -25 40 -25 35 0 39 -14 9 -31 -17 -9
-20 -17 -14 -45 7 -38 0 -41 -33 -18 -20 14 -24 14 -44 0 -33 -23 -40 -20 -33
18 6 28 3 36 -14 45 -30 17 -26 31 9 31 23 0 33 6 40 25 5 14 14 25 20 25 6 0
15 -11 20 -25z m-1705 -276 c6 -27 10 -30 35 -24 38 8 45 -7 14 -36 -19 -18
-23 -29 -19 -51 7 -32 -4 -36 -39 -13 -21 14 -24 14 -36 0 -7 -8 -19 -15 -27
-15 -11 0 -13 7 -8 31 6 25 3 34 -14 45 -30 21 -26 34 9 34 25 0 32 6 45 36
17 40 30 38 40 -7z m1625 -3 c0 4 5 3 12 -4 7 -7 24 -12 39 -12 38 0 43 -13
14 -40 -14 -13 -25 -29 -25 -36 0 -13 -58 -34 -94 -34 -15 0 -17 5 -13 27 3
15 1 38 -4 50 -7 19 -5 25 9 30 9 4 21 13 25 20 7 11 12 11 23 2 8 -6 14 -8
14 -3z m-1469 -236 c9 -24 17 -30 39 -30 39 0 45 -14 15 -34 -22 -15 -25 -22
-19 -51 7 -39 0 -43 -28 -18 -16 14 -22 14 -46 2 -15 -7 -31 -15 -35 -17 -5
-2 -5 12 -1 33 5 30 3 39 -15 51 -30 21 -26 34 9 34 20 0 33 6 37 18 7 19 23
42 30 42 2 0 9 -13 14 -30z m1319 -17 c0 -8 13 -13 35 -13 41 0 45 -13 11 -36
-21 -13 -23 -19 -15 -41 13 -35 2 -46 -28 -26 -20 13 -29 14 -44 4 -26 -16
-42 -4 -35 25 5 18 0 27 -19 40 -30 20 -24 34 15 34 23 0 30 6 40 33 11 31 12
31 26 13 7 -11 14 -26 14 -33z m-1088 -161 c7 -27 13 -32 38 -32 35 0 38 -13
9 -34 -15 -10 -19 -20 -14 -35 10 -33 -3 -44 -30 -27 -21 14 -25 14 -48 -5
-30 -23 -41 -12 -27 25 8 22 6 28 -15 42 -29 19 -24 34 10 34 18 0 26 8 35 36
14 42 31 40 42 -4z m849 -2 c9 -24 17 -30 39 -30 39 0 45 -14 15 -34 -19 -13
-24 -22 -19 -40 7 -30 -7 -40 -32 -22 -16 12 -22 12 -46 -5 -31 -22 -42 -12
-28 25 8 22 6 28 -15 42 -34 22 -31 34 8 34 27 0 35 5 44 30 6 17 14 30 18 30
3 0 11 -13 16 -30z m-571 -95 c7 -19 17 -25 39 -25 40 0 46 -14 16 -34 -22
-15 -25 -22 -19 -51 7 -39 3 -42 -31 -19 -22 14 -26 14 -47 0 -33 -23 -40 -20
-33 17 5 25 2 37 -14 51 -25 23 -19 36 19 36 21 0 29 6 34 25 4 14 11 25 16
25 6 0 15 -11 20 -25z m300 -17 c0 -4 13 -8 29 -8 40 0 47 -15 17 -35 -19 -13
-23 -23 -21 -51 l4 -34 -29 17 c-28 16 -30 16 -49 -1 -27 -25 -43 -13 -30 22
9 23 7 29 -15 45 -31 22 -26 37 13 37 21 0 31 7 40 27 12 27 13 27 27 8 8 -10
14 -22 14 -27z"/>
<path d="M681 2368 c-96 -195 -132 -350 -132 -568 0 -346 125 -647 370 -890
243 -241 541 -364 886 -363 772 1 1355 681 1240 1446 -26 173 -136 457 -171
443 -9 -3 -22 -6 -29 -6 -9 0 4 -37 39 -112 30 -62 67 -158 82 -213 27 -94 29
-111 29 -295 0 -152 -4 -211 -17 -267 -165 -676 -818 -1073 -1483 -902 -224
58 -448 198 -602 378 -316 370 -380 879 -165 1313 l58 117 -23 10 c-13 6 -26
11 -28 11 -2 0 -26 -46 -54 -102z"/>
</g>
</svg>
